g sb_01_slum_prop_27
v -1.213416 0.804696 0.07068115
v -1.213416 0.804696 -0.005534668
v 1.212489 0.7990417 -0.005534668
v 1.212489 0.7990417 0.07068115
v -1.21202 -0.7428564 0.07068115
v -1.21202 -0.7428564 -0.005534668
v -1.252439 0.7647052 -0.005534668
v -1.252439 0.7647052 0.07068115
v 1.206563 -0.804696 0.07067993
v 1.206563 -0.804696 -0.005535888
v -1.170849 -0.7833014 -0.005534668
v -1.170849 -0.7833014 0.07068115
v 1.252439 0.7588501 0.07068115
v 1.252439 0.7588501 -0.005534668
v 1.246808 -0.7649585 -0.005535888
v 1.246808 -0.7649585 0.07067993
v 1.212489 0.7990417 0.07068115
v 1.212489 0.7990417 -0.005534668
v 1.252439 0.7588501 -0.005534668
v 1.252439 0.7588501 0.07068115
v -1.252439 0.7647052 0.07068115
v -1.252439 0.7647052 -0.005534668
v -1.213416 0.804696 -0.005534668
v -1.213416 0.804696 0.07068115
v -1.170849 -0.7833014 0.07068115
v -1.170849 -0.7833014 -0.005534668
v -1.21202 -0.7428564 -0.005534668
v -1.21202 -0.7428564 0.07068115
v 1.246808 -0.7649585 0.07067993
v 1.246808 -0.7649585 -0.005535888
v 1.206563 -0.804696 -0.005535888
v 1.206563 -0.804696 0.07067993
v -1.252439 0.7647052 0.07068115
v -1.170849 -0.7833014 0.07068115
v -1.21202 -0.7428564 0.07068115
v -1.213416 0.804696 0.07068115
v 1.212489 0.7990417 0.07068115
v 1.206563 -0.804696 0.07067993
v 1.246808 -0.7649585 0.07067993
v 1.252439 0.7588501 0.07068115
vt 0.9037206 0.4335368
vt 0.9037206 0.4335368
vt 0.8389286 0.4334026
vt 0.8389286 0.4334026
vt 0.9036371 0.3967996
vt 0.9036371 0.3967996
vt 0.9047617 0.4325875
vt 0.9047617 0.4325875
vt 0.8388644 0.3953316
vt 0.8388644 0.3953316
vt 0.9025333 0.3958395
vt 0.9025333 0.3958395
vt 0.837856 0.4324485
vt 0.837856 0.4324485
vt 0.8377922 0.3962749
vt 0.8377922 0.3962749
vt 0.8389286 0.4334026
vt 0.8389286 0.4334026
vt 0.837856 0.4324485
vt 0.837856 0.4324485
vt 0.9047617 0.4325875
vt 0.9047617 0.4325875
vt 0.9037206 0.4335368
vt 0.9037206 0.4335368
vt 0.9025333 0.3958395
vt 0.9025333 0.3958395
vt 0.9036371 0.3967996
vt 0.9036371 0.3967996
vt 0.8377922 0.3962749
vt 0.8377922 0.3962749
vt 0.8388644 0.3953316
vt 0.8388644 0.3953316
vt 0.9047617 0.4325875
vt 0.9025333 0.3958395
vt 0.9036371 0.3967996
vt 0.9037206 0.4335368
vt 0.8389286 0.4334026
vt 0.8388644 0.3953316
vt 0.8377922 0.3962749
vt 0.837856 0.4324485
vn 0.002330793 0.9999973 0
vn 0.002330793 0.9999973 0
vn 0.002330793 0.9999973 0
vn 0.002330793 0.9999973 0
vn -0.9996408 -0.02680112 0
vn -0.9996408 -0.02680112 0
vn -0.9996408 -0.02680112 0
vn -0.9996408 -0.02680112 0
vn -0.008998774 -0.9999596 0
vn -0.008998774 -0.9999596 0
vn -0.008998774 -0.9999596 0
vn -0.008998774 -0.9999596 0
vn 0.9999932 -0.003695489 0
vn 0.9999932 -0.003695489 0
vn 0.9999932 -0.003695489 0
vn 0.9999932 -0.003695489 0
vn 0.7092348 0.7049724 0
vn 0.7092348 0.7049724 0
vn 0.7092348 0.7049724 0
vn 0.7092348 0.7049724 0
vn -0.7157092 0.6983984 0
vn -0.7157092 0.6983984 0
vn -0.7157092 0.6983984 0
vn -0.7157092 0.6983984 0
vn -0.700785 -0.7133725 0
vn -0.700785 -0.7133725 0
vn -0.700785 -0.7133725 0
vn -0.700785 -0.7133725 0
vn 0.7026073 -0.7115779 0
vn 0.7026073 -0.7115779 0
vn 0.7026073 -0.7115779 0
vn 0.7026073 -0.7115779 0
vn 0 0 1
vn 1.705332E-07 -2.568585E-07 1
vn 0 0 1
vn 1.659107E-07 -2.49896E-07 1
vn 1.664278E-07 -5.13397E-07 1
vn 1.661418E-07 -5.138444E-07 1
vn 0 -7.805977E-07 1
vn 0 -7.805976E-07 1
g sb_01_slum_prop_27_0
f 3/3/3 2/2/2 1/1/1
f 4/4/4 3/3/3 1/1/1
f 7/7/7 6/6/6 5/5/5
f 8/8/8 7/7/7 5/5/5
f 11/11/11 10/10/10 9/9/9
f 12/12/12 11/11/11 9/9/9
f 15/15/15 14/14/14 13/13/13
f 16/16/16 15/15/15 13/13/13
f 19/19/19 18/18/18 17/17/17
f 20/20/20 19/19/19 17/17/17
f 23/23/23 22/22/22 21/21/21
f 24/24/24 23/23/23 21/21/21
f 27/27/27 26/26/26 25/25/25
f 28/28/28 27/27/27 25/25/25
f 31/31/31 30/30/30 29/29/29
f 32/32/32 31/31/31 29/29/29
f 35/35/35 34/34/34 33/33/33
f 34/34/34 36/36/36 33/33/33
f 36/36/36 34/34/34 37/37/37
f 34/34/34 38/38/38 37/37/37
f 37/37/37 38/38/38 39/39/39
f 40/40/40 37/37/37 39/39/39
