g sb_01_slum_prop_21
v -0.3759706 0.148591 0.03072559
v -0.3928165 0.2259839 0.03072559
v -0.3207922 0.2615324 0.03072559
v 0.4724613 0.3367303 0.01818435
v 0.4770492 0.3389328 0.0003258312
v 0.4392549 0.2628058 0.01818435
v 0.4329866 0.3653208 0.01818435
v 0.435283 0.3691829 0.0003258312
v 0.4770492 0.3389328 0.0003258312
v 0.4392549 0.2628058 0.01818435
v 0.4770492 0.3389328 0.0003258312
v 0.4419152 0.260717 0.0003258312
v 0.4329866 0.3653208 0.01818435
v 0.4770492 0.3389328 0.0003258312
v 0.4724613 0.3367303 0.01818435
v 0.2400747 -0.07314703 0.01672935
v 0.1732035 -0.1445744 0.01505148
v 0.1607455 -0.06264276 0.01818435
v 0.2314716 -0.1370081 0.01453562
v 0.2258625 -0.2254025 0.01298702
v 0.2506634 -0.2296907 0.01092256
v 0.3074073 0.2835323 0.007054716
v 0.4392549 0.2628058 0.01818435
v 0.315028 0.2455598 0.007054717
v 0.4329866 0.3653208 0.01818435
v 0.4724613 0.3367303 0.01818435
v -0.3207922 0.2615324 0.03072559
v -0.08970316 0.1105817 0.01818435
v -0.1066726 0.07760625 0.01818435
v -0.3759706 0.148591 0.03072559
v 0.2506634 -0.2296907 0.01092256
v 0.2529525 -0.2355119 0.0003258312
v 0.2259032 -0.2287532 0.0003258312
v 0.2258625 -0.2254025 0.01298702
v 0.2314716 -0.1370081 0.01453562
v 0.2326466 -0.137449 0.0003258312
v 0.2529525 -0.2355119 0.0003258312
v 0.2506634 -0.2296907 0.01092256
v 0.1607455 -0.06264276 0.01818435
v 0.1578147 -0.05876673 0.0003258312
v 0.2417492 -0.06988077 0.0003258312
v 0.2400747 -0.07314703 0.01672935
v 0.1732035 -0.1445744 0.01505148
v 0.1709958 -0.1454546 0.0003258312
v 0.1578147 -0.05876673 0.0003258312
v 0.1607455 -0.06264276 0.01818435
v 0.2400747 -0.07314703 0.01672935
v 0.2417492 -0.06988077 0.0003258312
v 0.2326466 -0.137449 0.0003258312
v 0.2314716 -0.1370081 0.01453562
v 0.315028 0.2455598 0.007054717
v 0.310477 0.2424698 0.0003258312
v 0.3024138 0.2826467 0.0003258312
v 0.3074073 0.2835323 0.007054716
v 0.4392549 0.2628058 0.01818435
v 0.4419152 0.260717 0.0003258312
v 0.310477 0.2424698 0.0003258312
v 0.315028 0.2455598 0.007054717
v 0.3074073 0.2835323 0.007054716
v 0.3024138 0.2826467 0.0003258312
v 0.435283 0.3691829 0.0003258312
v 0.4329866 0.3653208 0.01818435
v -0.3759706 0.148591 0.03072559
v -0.3898796 0.1482278 0.000325832
v -0.4041347 0.228908 0.000325832
v -0.3928165 0.2259839 0.03072559
v -0.1066726 0.07760625 0.01818435
v -0.09592905 0.07142261 0.000325832
v -0.3898796 0.1482278 0.000325832
v -0.3759706 0.148591 0.03072559
v -0.3207922 0.2615324 0.03072559
v -0.3295197 0.2677442 0.000325832
v -0.07781025 0.1066313 0.000325832
v -0.08970316 0.1105817 0.01818435
v -0.08970316 0.1105817 0.01818435
v -0.07781025 0.1066313 0.000325832
v -0.09592905 0.07142261 0.000325832
v -0.1066726 0.07760625 0.01818435
v -0.3207922 0.2615324 0.03072559
v -0.3928165 0.2259839 0.03072559
v -0.4041347 0.228908 0.000325832
v -0.3295197 0.2677442 0.000325832
v 0.2258625 -0.2254025 0.01298702
v 0.2259032 -0.2287532 0.0003258312
v 0.1709958 -0.1454546 0.0003258312
v 0.1732035 -0.1445744 0.01505148
vt 0.2444567 0.1225281
vt 0.2380155 0.1135377
vt 0.2315744 0.1045474
vt 0.1731925 0.1344233
vt 0.1775071 0.134397
vt 0.1731339 0.08897712
vt 0.1732275 0.08866992
vt 0.177542 0.08864381
vt 0.1775071 0.134397
vt 0.1731339 0.08897712
vt 0.1775071 0.134397
vt 0.1774484 0.08895078
vt 0.1732275 0.08866992
vt 0.1775071 0.134397
vt 0.1731925 0.1344233
vt 0.2308941 0.1078335
vt 0.2313734 0.1244733
vt 0.2409689 0.1131973
vt 0.2254988 0.1182267
vt 0.2227188 0.1275044
vt 0.2140641 0.1305355
vt 0.223781 0.1036813
vt 0.2296481 0.1233799
vt 0.2296693 0.1040466
vt 0.2140486 0.1245782
vt 0.2191831 0.1300052
vt 0.2315744 0.1045474
vt 0.211467 0.1353844
vt 0.2141719 0.1388719
vt 0.2444567 0.1225281
vt 0.1740166 0.1351028
vt 0.1714565 0.1351028
vt 0.1714565 0.1130345
vt 0.1745154 0.1130345
vt 0.1748894 0.09084954
vt 0.1714565 0.09084954
vt 0.1714565 0.1351028
vt 0.1740166 0.1351028
vt 0.175771 0.08879068
vt 0.1714564 0.08879068
vt 0.1714564 0.1379583
vt 0.1754195 0.1379583
vt 0.1750142 0.09096625
vt 0.1714565 0.09096625
vt 0.1714565 0.1297138
vt 0.175771 0.1297138
vt 0.1754195 0.1379583
vt 0.1714564 0.1379583
vt 0.1714565 0.09084954
vt 0.1748894 0.09084954
vt 0.1760494 0.08845296
vt 0.1776752 0.0884433
vt 0.1776482 0.135328
vt 0.1760225 0.1353377
vt 0.1734478 0.1331674
vt 0.1777624 0.1331421
vt 0.1776752 0.0884433
vt 0.1760494 0.08845296
vt 0.1760225 0.1353377
vt 0.1776482 0.135328
vt 0.177542 0.08864381
vt 0.1732275 0.08866992
vt 0.169957 0.09260311
vt 0.1773015 0.09260311
vt 0.1773014 0.1138764
vt 0.169957 0.1138765
vt 0.1729862 0.088115
vt 0.1773008 0.088115
vt 0.1773004 0.1349093
vt 0.169956 0.1349095
vt 0.1699569 0.1351499
vt 0.1773014 0.1351498
vt 0.1773008 0.09235778
vt 0.1729863 0.09235778
vt 0.1729863 0.09235778
vt 0.1773008 0.09235778
vt 0.1773008 0.088115
vt 0.1729862 0.088115
vt 0.1699569 0.1351499
vt 0.169957 0.1138765
vt 0.1773014 0.1138764
vt 0.1773014 0.1351498
vt 0.1745154 0.1130345
vt 0.1714565 0.1130345
vt 0.1714565 0.09096625
vt 0.1750142 0.09096625
vn 0.03607456 -0.01783693 0.9991899
vn 0.03607456 -0.01783693 0.9991899
vn 0.03607456 -0.01783693 0.9991899
vn 0.8971668 -0.4030016 0.1807803
vn 0.8971668 -0.4030016 0.1807803
vn 0.8971668 -0.4030016 0.1807803
vn 0.5689893 0.7856027 0.2430628
vn 0.5689893 0.7856027 0.2430628
vn 0.5689893 0.7856027 0.2430628
vn 0.8971665 -0.4030003 0.1807849
vn 0.8971664 -0.4030003 0.1807848
vn 0.8971665 -0.4030003 0.1807849
vn 0.5689892 0.785603 0.243062
vn 0.5689893 0.785603 0.243062
vn 0.5689892 0.785603 0.243062
vn 0.01354082 -0.03615026 0.9992546
vn 0.0210948 -0.02928029 0.9993486
vn 0.01354082 -0.03615026 0.9992546
vn 0.02218613 -0.02828738 0.9993536
vn 0.03181121 -0.0195256 0.9993032
vn 0.03181121 -0.0195256 0.9993032
vn -0.08542887 -0.008445833 0.9963085
vn -0.06609529 -0.006534437 0.9977919
vn -0.08542886 -0.008445833 0.9963085
vn -0.0465735 -0.004604432 0.9989042
vn 0 0 1
vn 0.03607456 -0.01783693 0.9991899
vn 0.03607456 -0.01783693 0.9991899
vn 0.03607456 -0.01783693 0.9991899
vn 0.03607456 -0.01783693 0.9991899
vn -0.1824427 -0.9207643 0.3448298
vn -0.1824427 -0.9207643 0.3448298
vn -0.1824427 -0.9207643 0.3448298
vn -0.1824427 -0.9207643 0.3448298
vn 0.9759468 0.2004661 0.08568066
vn 0.9759468 0.2004661 0.08568066
vn 0.9759468 0.2004661 0.08568066
vn 0.9759468 0.2004661 0.08568066
vn 0.1304073 0.9715402 0.1977466
vn 0.1304073 0.9715402 0.1977466
vn 0.1304073 0.9715402 0.1977466
vn 0.1304073 0.9715402 0.1977466
vn -0.978456 -0.151385 0.14038
vn -0.978456 -0.151385 0.14038
vn -0.978456 -0.151385 0.14038
vn -0.978456 -0.151385 0.14038
vn 0.9877312 -0.1343915 0.07953649
vn 0.9877312 -0.1343915 0.07953649
vn 0.9877312 -0.1343915 0.07953648
vn 0.9877312 -0.1343915 0.07953648
vn -0.7830488 -0.1571511 0.6017791
vn -0.7830488 -0.1571511 0.6017791
vn -0.7830488 -0.1571511 0.601779
vn -0.7830488 -0.1571511 0.601779
vn 0.1265264 -0.9725823 0.1951276
vn 0.1265264 -0.9725823 0.1951276
vn 0.1265264 -0.9725823 0.1951276
vn 0.1265264 -0.9725823 0.1951275
vn -0.5435811 0.8240846 0.1593872
vn -0.5435811 0.8240846 0.1593872
vn -0.5435811 0.8240846 0.1593872
vn -0.5435811 0.8240846 0.1593872
vn -0.911329 -0.1793044 0.3705796
vn -0.911329 -0.1793044 0.3705796
vn -0.911329 -0.1793043 0.3705797
vn -0.911329 -0.1793043 0.3705796
vn -0.2480241 -0.9576604 0.1461871
vn -0.2480241 -0.9576604 0.1461871
vn -0.2480241 -0.9576604 0.1461871
vn -0.2480241 -0.9576604 0.1461871
vn 0.5426888 0.8365966 0.07479876
vn 0.5426888 0.8365966 0.07479875
vn 0.5426889 0.8365966 0.07479876
vn 0.5426889 0.8365966 0.07479876
vn 0.7307084 -0.3760304 0.569795
vn 0.7307084 -0.3760304 0.5697951
vn 0.7307084 -0.3760304 0.569795
vn 0.7307084 -0.3760304 0.5697951
vn -0.4352743 0.858084 0.2724483
vn -0.4352743 0.858084 0.2724484
vn -0.4352743 0.858084 0.2724483
vn -0.4352743 0.858084 0.2724484
vn -0.826143 -0.5433205 0.1493004
vn -0.826143 -0.5433205 0.1493004
vn -0.826143 -0.5433205 0.1493004
vn -0.826143 -0.5433205 0.1493004
g sb_01_slum_prop_21_0
f 3/3/3 2/2/2 1/1/1
f 6/6/6 5/5/5 4/4/4
f 9/9/9 8/8/8 7/7/7
f 12/12/12 11/11/11 10/10/10
f 15/15/15 14/14/14 13/13/13
f 18/18/18 17/17/17 16/16/16
f 17/17/17 19/19/19 16/16/16
f 19/19/19 17/17/17 20/20/20
f 21/21/21 19/19/19 20/20/20
f 24/24/24 23/23/23 22/22/22
f 23/23/23 25/25/25 22/22/22
f 26/26/26 25/25/25 23/23/23
f 29/29/29 28/28/28 27/27/27
f 27/27/27 30/30/30 29/29/29
f 33/33/33 32/32/32 31/31/31
f 34/34/34 33/33/33 31/31/31
f 37/37/37 36/36/36 35/35/35
f 38/38/38 37/37/37 35/35/35
f 41/41/41 40/40/40 39/39/39
f 42/42/42 41/41/41 39/39/39
f 45/45/45 44/44/44 43/43/43
f 46/46/46 45/45/45 43/43/43
f 49/49/49 48/48/48 47/47/47
f 50/50/50 49/49/49 47/47/47
f 53/53/53 52/52/52 51/51/51
f 54/54/54 53/53/53 51/51/51
f 57/57/57 56/56/56 55/55/55
f 58/58/58 57/57/57 55/55/55
f 61/61/61 60/60/60 59/59/59
f 62/62/62 61/61/61 59/59/59
f 65/65/65 64/64/64 63/63/63
f 66/66/66 65/65/65 63/63/63
f 69/69/69 68/68/68 67/67/67
f 70/70/70 69/69/69 67/67/67
f 73/73/73 72/72/72 71/71/71
f 74/74/74 73/73/73 71/71/71
f 77/77/77 76/76/76 75/75/75
f 78/78/78 77/77/77 75/75/75
f 81/81/81 80/80/80 79/79/79
f 82/82/82 81/81/81 79/79/79
f 85/85/85 84/84/84 83/83/83
f 86/86/86 85/85/85 83/83/83
