g sb_slum_plant_01
v 0.1318914 0.05397894 0.1860869
v 0.08691047 0.0678046 0.242995
v 0.1442199 0.06483285 0.259248
v 0.03875591 0.05689179 0.1480561
v 0.1575494 0.0430708 0.1353098
v -0.08052456 0.06046773 0.09841198
v 0.1967728 0.02619218 0.05645412
v 0.1992218 0.04043099 0.1442252
v 0.2132257 0.03060675 0.09304992
v -0.1063269 0.05550341 0.05289383
v -0.0005954742 0.03057788 -0.03497133
v 0.2107779 0.01636716 0.005274696
v 0.1710047 0.01470832 -0.02856098
v -0.1413799 0.04532984 -0.02973066
v -0.2156433 0.0563243 -0.007492008
v -0.1387568 0.03473962 -0.09236047
v 0.05081774 0.02130703 -0.06042492
v 0.1874835 0.002406812 -0.09327228
v 0.06079122 0.0144575 -0.09597927
v -0.0658057 0.06663574 0.2569602
v -0.139679 0.1192138 0.3074811
v -0.09777069 0.1122985 0.3136889
v -0.209052 0.1174623 0.2771192
v -0.1803858 0.150371 0.3386449
v -0.2433437 0.1416957 0.3003074
v -0.1456742 0.1432367 0.341646
v -0.1561266 0.1624973 0.3667841
v -0.1034676 0.1423826 0.357197
v -0.2585798 0.08046862 0.2010477
v -0.247574 0.1159365 0.2594175
v -0.208382 0.0294285 0.1434149
v -0.01058319 0.001250591 0.1795027
v -0.1684385 -0.01510434 0.0915911
v 0.02271156 -0.05017467 0.1145354
v -0.02740967 0.05712329 0.2578132
v 0.03036648 0.03787453 0.2515867
v 0.02146168 0.07142246 0.2990853
v 0.06455118 0.04567633 0.2771076
v 0.07662773 0.06775774 0.3155329
v 0.1303465 0.0177725 0.260911
v -0.03107502 0.1025765 0.3255213
v -0.05057396 0.1012724 0.315752
v -0.08581822 0.1233393 0.3352628
v -0.06333992 0.1421768 0.3729046
v -0.4051045 0.1139449 0.1767772
v -0.3951661 0.09298252 0.1248811
v -0.456254 0.103911 0.1351631
v -0.399059 0.1034092 0.1510095
v -0.2988273 0.1007531 0.174128
v -0.3474503 0.06697931 0.0711227
v -0.4231904 0.08887529 0.1057209
v -0.2462912 0.09576181 0.1768227
v -0.2326497 0.0702012 0.1140001
v -0.3697326 0.05313881 0.02820423
v -0.3006764 0.05233128 0.04680838
v -0.1579684 0.04383269 0.06737549
v -0.2492868 0.0215314 -0.01840483
v -0.2337852 0.05964405 -0.0318919
v -0.2524907 0.03849487 -0.07460377
v -0.2829877 0.04337588 -0.03231075
v -0.17818 0.06633797 -0.06466331
v -0.2640799 0.01268564 -0.1371968
v -0.2149071 0.01101794 -0.1877523
v -0.1032611 0.04241435 -0.2024922
v -0.03766947 0.1058217 -0.08329882
v -0.04905649 0.08998071 -0.1177348
v 0.02242622 0.093664 -0.1738599
v 0.02686989 0.1100781 -0.1313251
v -0.1651292 0.007302423 -0.2446946
v -0.1814715 -0.02702752 -0.3270886
v -0.1365627 -0.00164268 -0.2967454
v -0.2427547 -0.01923291 -0.2478279
v -0.2756692 -0.01312499 -0.1997938
vt 0.3017364 0.152381
vt 0.3048537 0.1536415
vt 0.3048537 0.1509945
vt 0.3012165 0.156819
vt 0.2991386 0.1518768
vt 0.3005088 0.1625139
vt 0.2951122 0.1511205
vt 0.2990087 0.1499861
vt 0.2965409 0.149986
vt 0.2987994 0.1641538
vt 0.2935258 0.1606525
vt 0.2926443 0.1511205
vt 0.2916349 0.1532221
vt 0.2955469 0.1666254
vt 0.2974845 0.1695476
vt 0.2927111 0.1672474
vt 0.2917343 0.1587473
vt 0.2885301 0.1532748
vt 0.2900167 0.1587368
vt 0.2720991 0.2142047
vt 0.2752165 0.2193727
vt 0.2758659 0.2169778
vt 0.2727485 0.223028
vt 0.2771648 0.2222717
vt 0.2741773 0.2254229
vt 0.2775543 0.2202551
vt 0.2792428 0.2212632
vt 0.2788532 0.2179862
vt 0.2672146 0.2248001
vt 0.2713198 0.2250447
vt 0.2634804 0.2209296
vt 0.2670164 0.2097304
vt 0.2600954 0.2177579
vt 0.2626852 0.2067514
vt 0.2723588 0.211936
vt 0.272229 0.2084066
vt 0.2754762 0.2096671
vt 0.2741773 0.206768
vt 0.276905 0.2066419
vt 0.273398 0.2026085
vt 0.2770349 0.2131963
vt 0.2762556 0.2142047
vt 0.2774244 0.2165996
vt 0.2801521 0.2158434
vt 0.2730083 0.2341201
vt 0.2696314 0.2339941
vt 0.2709301 0.2373972
vt 0.2713198 0.2339941
vt 0.2717094 0.2280697
vt 0.2657347 0.2317252
vt 0.2687221 0.2357585
vt 0.2713198 0.2250447
vt 0.2672146 0.2248001
vt 0.2632668 0.2333638
vt 0.263704 0.2292594
vt 0.2634804 0.2209296
vt 0.259046 0.2268781
vt 0.2965409 0.1832623
vt 0.2943328 0.1840184
vt 0.2961513 0.185531
vt 0.2953719 0.1806152
vt 0.2912157 0.1843966
vt 0.2891374 0.1820018
vt 0.289262 0.1768146
vt 0.2955246 0.1740868
vt 0.2937721 0.1745261
vt 0.2915917 0.1710882
vt 0.2936842 0.1709895
vt 0.2867545 0.1795631
vt 0.282643 0.1801111
vt 0.2844492 0.1781152
vt 0.28602 0.1831362
vt 0.2880982 0.1847747
vn -0.09686936 -0.9820225 0.162013
vn -0.09686939 -0.9820225 0.1620128
vn -0.09686949 -0.9820225 0.1620127
vn -0.09686938 -0.9820225 0.1620128
vn -0.09686938 -0.9820225 0.162013
vn -0.09686945 -0.9820225 0.162013
vn -0.09686945 -0.9820225 0.1620129
vn -0.09686933 -0.9820225 0.162013
vn -0.09686967 -0.9820225 0.162013
vn -0.09686942 -0.9820225 0.162013
vn -0.09686952 -0.9820228 0.1620111
vn -0.09686942 -0.9820225 0.1620129
vn -0.09686945 -0.9820225 0.162013
vn -0.09686973 -0.9820234 0.1620071
vn -0.09686945 -0.9820225 0.162013
vn -0.09687034 -0.9820253 0.1619957
vn -0.09686945 -0.9820225 0.162013
vn -0.09686943 -0.9820225 0.162013
vn -0.09686942 -0.9820225 0.162013
vn -0.2141595 -0.8163293 0.5364161
vn -0.2141596 -0.8163286 0.5364169
vn -0.214159 -0.8163284 0.5364175
vn -0.2141598 -0.8163291 0.5364164
vn -0.2141594 -0.8163286 0.5364169
vn -0.2141586 -0.8163292 0.5364165
vn -0.2141597 -0.8163285 0.5364173
vn -0.2141598 -0.8163284 0.5364172
vn -0.2141604 -0.8163284 0.5364169
vn -0.2141603 -0.8163291 0.536416
vn -0.2141615 -0.8163285 0.5364165
vn -0.2141599 -0.8163291 0.5364161
vn -0.2141597 -0.8163292 0.5364162
vn -0.2141597 -0.8163288 0.5364166
vn -0.2141598 -0.8163288 0.5364168
vn -0.2141592 -0.8163291 0.5364164
vn -0.2141601 -0.8163288 0.5364166
vn -0.2141599 -0.8163285 0.5364171
vn -0.2141596 -0.8163286 0.5364171
vn -0.2141593 -0.8163286 0.5364172
vn -0.2141578 -0.8163291 0.5364171
vn -0.2141592 -0.8163289 0.5364168
vn -0.2141589 -0.8163285 0.5364175
vn -0.2141601 -0.8163295 0.5364154
vn -0.2141603 -0.81633 0.5364148
vn -0.1064511 -0.9288593 0.3548079
vn -0.1064505 -0.9288592 0.3548083
vn -0.1064505 -0.9288593 0.354808
vn -0.1064613 -0.928859 0.3548056
vn -0.1064491 -0.9288597 0.3548074
vn -0.1064503 -0.9288592 0.3548085
vn -0.1064495 -0.9288588 0.3548096
vn -0.1064495 -0.9288594 0.3548081
vn -0.1064505 -0.9288592 0.3548083
vn -0.1064497 -0.9288595 0.3548076
vn -0.1064495 -0.9288598 0.3548071
vn -0.1064508 -0.9288591 0.3548086
vn -0.1064509 -0.9288586 0.3548096
vn 0.2953029 -0.9012955 0.3169582
vn 0.2953028 -0.9012955 0.3169585
vn 0.2953032 -0.9012955 0.3169581
vn 0.2953028 -0.9012955 0.3169584
vn 0.295303 -0.9012955 0.3169584
vn 0.295303 -0.9012955 0.3169583
vn 0.2953029 -0.9012955 0.3169583
vn 0.295303 -0.9012955 0.3169583
vn 0.2953036 -0.9012954 0.316958
vn 0.2953028 -0.9012956 0.3169583
vn 0.2953027 -0.9012956 0.3169582
vn 0.2953031 -0.9012954 0.3169583
vn 0.295303 -0.9012954 0.3169585
vn 0.2953028 -0.9012954 0.3169586
vn 0.2953029 -0.9012955 0.3169583
vn 0.2953031 -0.9012955 0.3169582
g sb_slum_plant_01_0
f 3/3/3 2/2/2 1/1/1
f 1/1/1 2/2/2 4/4/4
f 5/5/5 1/1/1 4/4/4
f 5/5/5 4/4/4 6/6/6
f 5/5/5 6/6/6 7/7/7
f 5/5/5 7/7/7 8/8/8
f 9/9/9 8/8/8 7/7/7
f 6/6/6 10/10/10 7/7/7
f 7/7/7 10/10/10 11/11/11
f 12/12/12 7/7/7 11/11/11
f 12/12/12 11/11/11 13/13/13
f 11/11/11 10/10/10 14/14/14
f 14/14/14 10/10/10 15/15/15
f 16/16/16 11/11/11 14/14/14
f 17/17/17 13/13/13 11/11/11
f 13/13/13 17/17/17 18/18/18
f 19/19/19 18/18/18 17/17/17
f 22/22/22 21/21/21 20/20/20
f 23/23/23 20/20/20 21/21/21
f 21/21/21 24/24/24 23/23/23
f 25/25/25 23/23/23 24/24/24
f 26/26/26 24/24/24 21/21/21
f 24/24/24 26/26/26 27/27/27
f 28/28/28 27/27/27 26/26/26
f 20/20/20 23/23/23 29/29/29
f 30/30/30 29/29/29 23/23/23
f 29/29/29 31/31/31 20/20/20
f 31/31/31 32/32/32 20/20/20
f 32/32/32 31/31/31 33/33/33
f 34/34/34 32/32/32 33/33/33
f 20/20/20 32/32/32 35/35/35
f 35/35/35 32/32/32 36/36/36
f 37/37/37 35/35/35 36/36/36
f 38/38/38 37/37/37 36/36/36
f 37/37/37 38/38/38 39/39/39
f 40/40/40 39/39/39 38/38/38
f 37/37/37 41/41/41 35/35/35
f 42/42/42 35/35/35 41/41/41
f 42/42/42 41/41/41 43/43/43
f 44/44/44 43/43/43 41/41/41
f 47/47/47 46/46/46 45/45/45
f 48/48/48 45/45/45 46/46/46
f 49/49/49 48/48/48 46/46/46
f 50/50/50 49/49/49 46/46/46
f 51/51/51 50/50/50 46/46/46
f 49/49/49 50/50/50 52/52/52
f 52/52/52 50/50/50 53/53/53
f 54/54/54 53/53/53 50/50/50
f 54/54/54 55/55/55 53/53/53
f 56/56/56 53/53/53 55/55/55
f 57/57/57 56/56/56 55/55/55
f 60/60/60 59/59/59 58/58/58
f 58/58/58 59/59/59 61/61/61
f 59/59/59 62/62/62 61/61/61
f 62/62/62 63/63/63 61/61/61
f 61/61/61 63/63/63 64/64/64
f 61/61/61 64/64/64 65/65/65
f 66/66/66 65/65/65 64/64/64
f 64/64/64 67/67/67 66/66/66
f 68/68/68 66/66/66 67/67/67
f 69/69/69 64/64/64 63/63/63
f 70/70/70 69/69/69 63/63/63
f 71/71/71 69/69/69 70/70/70
f 72/72/72 70/70/70 63/63/63
f 73/73/73 72/72/72 63/63/63
